<svg width="16" height="16" viewBox="0 0 16 16" fill="none" xmlns="http://www.w3.org/2000/svg">
<path fill-rule="evenodd" clip-rule="evenodd" d="M1.33329 2C1.70148 2 1.99996 2.29848 1.99996 2.66667V12C1.99996 12.3682 2.29844 12.6667 2.66663 12.6667H14.6666C15.0348 12.6667 15.3333 12.9651 15.3333 13.3333C15.3333 13.7015 15.0348 14 14.6666 14H2.66663C1.56206 14 0.666626 13.1046 0.666626 12V2.66667C0.666626 2.29848 0.965103 2 1.33329 2Z" fill="#FCFCFD"/>
<path fill-rule="evenodd" clip-rule="evenodd" d="M13.664 3.42114C13.9837 3.60382 14.0948 4.01105 13.9121 4.33073L11.7878 8.04835C11.3148 8.8761 10.3233 9.25491 9.41881 8.95343L7.3378 8.25976C7.07282 8.17144 6.78088 8.25765 6.6064 8.47576L4.52052 11.0831C4.29052 11.3706 3.87099 11.4172 3.58348 11.1872C3.29597 10.9572 3.24936 10.5377 3.47936 10.2502L5.56524 7.64283C6.08869 6.98852 6.96451 6.72988 7.75943 6.99485L9.84045 7.68852C10.1419 7.78902 10.4724 7.66274 10.6301 7.38683L12.7544 3.66921C12.9371 3.34953 13.3444 3.23847 13.664 3.42114Z" fill="#FCFCFD"/>
</svg>
