<svg width="16" height="17" viewBox="0 0 16 17" fill="none" xmlns="http://www.w3.org/2000/svg">
<path fill-rule="evenodd" clip-rule="evenodd" d="M9.93701 11.3799C9.03389 12.0819 7.89906 12.5 6.66659 12.5C3.72107 12.5 1.33325 10.1122 1.33325 7.16665C1.33325 4.22113 3.72107 1.83331 6.66659 1.83331C9.6121 1.83331 11.9999 4.22113 11.9999 7.16665C11.9999 8.39912 11.5819 9.53395 10.8798 10.4371L14.4713 14.0286C14.7317 14.2889 14.7317 14.711 14.4713 14.9714C14.211 15.2317 13.7889 15.2317 13.5285 14.9714L9.93701 11.3799ZM10.6666 7.16665C10.6666 9.37579 8.87572 11.1666 6.66659 11.1666C4.45745 11.1666 2.66659 9.37579 2.66659 7.16665C2.66659 4.95751 4.45745 3.16665 6.66659 3.16665C8.87572 3.16665 10.6666 4.95751 10.6666 7.16665Z" fill="#FCFCFD"/>
</svg>
